<mxfile host="65bd71144e">
    <diagram id="3Ep8cOLKTp2xV2-i5Mx_" name="Page-1">
        <mxGraphModel dx="1431" dy="668" grid="1" gridSize="10" guides="1" tooltips="1" connect="1" arrows="1" fold="1" page="1" pageScale="1" pageWidth="850" pageHeight="1100" math="0" shadow="0">
            <root>
                <mxCell id="0"/>
                <mxCell id="1" parent="0"/>
                <mxCell id="2" value="" style="edgeStyle=none;html=1;strokeColor=#FF0000;fontSize=11;fontColor=#FFFFFF;endArrow=classic;endFill=1;entryX=0;entryY=0.5;entryDx=0;entryDy=0;" parent="1" target="10" edge="1">
                    <mxGeometry relative="1" as="geometry">
                        <mxPoint x="80" y="100" as="sourcePoint"/>
                        <mxPoint x="150" y="110" as="targetPoint"/>
                    </mxGeometry>
                </mxCell>
                <mxCell id="3" value="Visiteur" style="shape=umlActor;verticalLabelPosition=bottom;verticalAlign=top;html=1;outlineConnect=0;fillColor=#fff2cc;strokeColor=#FF0000;" parent="1" vertex="1">
                    <mxGeometry x="40" y="60" width="30" height="60" as="geometry"/>
                </mxCell>
                <mxCell id="4" value="Consultant" style="shape=umlActor;verticalLabelPosition=bottom;verticalAlign=top;html=1;outlineConnect=0;fillColor=#fff2cc;strokeColor=#FF0000;" parent="1" vertex="1">
                    <mxGeometry x="40" y="860" width="30" height="60" as="geometry"/>
                </mxCell>
                <mxCell id="5" style="edgeStyle=none;html=1;strokeColor=#FF0000;fontSize=11;fontColor=#FFFFFF;endArrow=block;endFill=0;" parent="1" source="6" edge="1">
                    <mxGeometry relative="1" as="geometry">
                        <mxPoint x="55" y="150" as="targetPoint"/>
                    </mxGeometry>
                </mxCell>
                <mxCell id="6" value="Client" style="shape=umlActor;verticalLabelPosition=bottom;verticalAlign=top;html=1;outlineConnect=0;fillColor=#fff2cc;strokeColor=#FF0000;strokeWidth=1;" parent="1" vertex="1">
                    <mxGeometry x="40" y="540" width="30" height="60" as="geometry"/>
                </mxCell>
                <mxCell id="7" value="Admin" style="shape=umlActor;verticalLabelPosition=bottom;verticalAlign=top;html=1;outlineConnect=0;fillColor=#fff2cc;strokeColor=#FF0000;" parent="1" vertex="1">
                    <mxGeometry x="40" y="1380" width="30" height="60" as="geometry"/>
                </mxCell>
                <mxCell id="8" value="consulter les hôtels" style="ellipse;whiteSpace=wrap;html=1;strokeColor=#FF0000;fillColor=#fff2cc;fontColor=#000000;" parent="1" vertex="1">
                    <mxGeometry x="400" y="140" width="140" height="40" as="geometry"/>
                </mxCell>
                <mxCell id="9" value="créer une réservation" style="ellipse;whiteSpace=wrap;html=1;strokeColor=#FF0000;fillColor=#fff2cc;fontColor=#000000;" parent="1" vertex="1">
                    <mxGeometry x="400" y="20" width="140" height="40" as="geometry"/>
                </mxCell>
                <mxCell id="10" value="afficher la liste des hôtels" style="ellipse;whiteSpace=wrap;html=1;strokeColor=#FF0000;fillColor=#fff2cc;fontColor=#000000;" parent="1" vertex="1">
                    <mxGeometry x="170" y="80" width="140" height="40" as="geometry"/>
                </mxCell>
                <mxCell id="11" value="valider la réservation" style="ellipse;whiteSpace=wrap;html=1;strokeColor=#FF0000;fillColor=#fff2cc;fontColor=#000000;" parent="1" vertex="1">
                    <mxGeometry x="170" y="560" width="140" height="40" as="geometry"/>
                </mxCell>
                <mxCell id="12" value="&lt;span style=&quot;color: rgb(255, 255, 255);&quot;&gt;extend&lt;/span&gt;" style="edgeStyle=none;html=1;fontSize=11;fontColor=#000000;dashed=1;strokeColor=#FF0000;entryX=1;entryY=0;entryDx=0;entryDy=0;exitX=0;exitY=0.5;exitDx=0;exitDy=0;" parent="1" source="9" target="10" edge="1">
                    <mxGeometry x="-0.0736" y="-23" relative="1" as="geometry">
                        <mxPoint x="300" y="30" as="sourcePoint"/>
                        <mxPoint x="340" y="90" as="targetPoint"/>
                        <Array as="points"/>
                        <mxPoint as="offset"/>
                    </mxGeometry>
                </mxCell>
                <mxCell id="13" value="&lt;span style=&quot;color: rgb(255, 255, 255);&quot;&gt;extend&lt;/span&gt;" style="edgeStyle=none;html=1;fontSize=11;fontColor=#000000;dashed=1;strokeColor=#FF0000;entryX=1;entryY=1;entryDx=0;entryDy=0;exitX=0;exitY=0.5;exitDx=0;exitDy=0;" parent="1" source="8" target="10" edge="1">
                    <mxGeometry x="-0.1377" y="32" relative="1" as="geometry">
                        <mxPoint x="310" y="170" as="sourcePoint"/>
                        <mxPoint x="360" y="87.09" as="targetPoint"/>
                        <Array as="points"/>
                        <mxPoint as="offset"/>
                    </mxGeometry>
                </mxCell>
                <mxCell id="14" value="supprimer une réservation" style="ellipse;whiteSpace=wrap;html=1;strokeColor=#FF0000;fillColor=#fff2cc;fontColor=#000000;" parent="1" vertex="1">
                    <mxGeometry x="640.14" y="560" width="160" height="40" as="geometry"/>
                </mxCell>
                <mxCell id="15" value="afficher les réservations" style="ellipse;whiteSpace=wrap;html=1;strokeColor=#FF0000;fillColor=#fff2cc;fontColor=#000000;" parent="1" vertex="1">
                    <mxGeometry x="170" y="880" width="140" height="40" as="geometry"/>
                </mxCell>
                <mxCell id="16" value="&lt;span style=&quot;color: rgb(255, 255, 255);&quot;&gt;extend&lt;/span&gt;" style="edgeStyle=none;html=1;fontSize=11;fontColor=#000000;dashed=1;strokeColor=#FF0000;entryX=0.5;entryY=1;entryDx=0;entryDy=0;exitX=0.5;exitY=0;exitDx=0;exitDy=0;" parent="1" source="8" target="9" edge="1">
                    <mxGeometry y="10" relative="1" as="geometry">
                        <mxPoint x="424.99510818549356" y="120.00298873881863" as="sourcePoint"/>
                        <mxPoint x="505.62" y="147.09" as="targetPoint"/>
                        <Array as="points"/>
                        <mxPoint as="offset"/>
                    </mxGeometry>
                </mxCell>
                <mxCell id="17" value="&lt;span style=&quot;color: rgb(255, 255, 255);&quot;&gt;include&lt;/span&gt;" style="edgeStyle=none;html=1;fontSize=11;fontColor=#000000;dashed=1;strokeColor=#FF0000;exitX=0.5;exitY=1;exitDx=0;exitDy=0;entryX=0;entryY=0;entryDx=0;entryDy=0;" parent="1" source="11" target="22" edge="1">
                    <mxGeometry x="0.0869" y="20" relative="1" as="geometry">
                        <mxPoint x="240" y="520" as="sourcePoint"/>
                        <mxPoint x="730" y="830" as="targetPoint"/>
                        <Array as="points">
                            <mxPoint x="240" y="720"/>
                            <mxPoint x="440" y="720"/>
                            <mxPoint x="640" y="720"/>
                            <mxPoint x="911" y="720"/>
                        </Array>
                        <mxPoint as="offset"/>
                    </mxGeometry>
                </mxCell>
                <mxCell id="19" value="" style="edgeStyle=none;html=1;strokeColor=#FF0000;fontSize=11;fontColor=#FFFFFF;endArrow=classic;endFill=1;entryX=0;entryY=0.5;entryDx=0;entryDy=0;" parent="1" target="11" edge="1">
                    <mxGeometry relative="1" as="geometry">
                        <mxPoint x="80" y="579.5" as="sourcePoint"/>
                        <mxPoint x="140" y="580" as="targetPoint"/>
                    </mxGeometry>
                </mxCell>
                <mxCell id="20" value="" style="edgeStyle=none;html=1;strokeColor=#FF0000;fontSize=11;fontColor=#FFFFFF;endArrow=classic;endFill=1;entryX=0;entryY=0.5;entryDx=0;entryDy=0;" parent="1" target="15" edge="1">
                    <mxGeometry relative="1" as="geometry">
                        <mxPoint x="80" y="899.5" as="sourcePoint"/>
                        <mxPoint x="160" y="899.5" as="targetPoint"/>
                    </mxGeometry>
                </mxCell>
                <mxCell id="21" value="" style="edgeStyle=none;html=1;strokeColor=#FF0000;fontSize=11;fontColor=#FFFFFF;endArrow=classic;endFill=1;entryX=0;entryY=0.5;entryDx=0;entryDy=0;" parent="1" target="29" edge="1">
                    <mxGeometry relative="1" as="geometry">
                        <mxPoint x="80" y="1419.5" as="sourcePoint"/>
                        <mxPoint x="170" y="1420" as="targetPoint"/>
                    </mxGeometry>
                </mxCell>
                <mxCell id="22" value="authentification" style="ellipse;whiteSpace=wrap;html=1;strokeColor=#FF0000;fillColor=#fff2cc;fontColor=#000000;" parent="1" vertex="1">
                    <mxGeometry x="890" y="880" width="140" height="40" as="geometry"/>
                </mxCell>
                <mxCell id="23" value="&lt;span style=&quot;color: rgb(255, 255, 255);&quot;&gt;include&lt;/span&gt;" style="edgeStyle=none;html=1;fontSize=11;fontColor=#000000;dashed=1;strokeColor=#FF0000;exitX=0.5;exitY=0;exitDx=0;exitDy=0;entryX=0;entryY=0.5;entryDx=0;entryDy=0;" parent="1" source="15" target="22" edge="1">
                    <mxGeometry x="0.1429" y="20" relative="1" as="geometry">
                        <mxPoint x="240" y="760" as="sourcePoint"/>
                        <mxPoint x="760" y="640" as="targetPoint"/>
                        <Array as="points">
                            <mxPoint x="240" y="760"/>
                            <mxPoint x="490" y="760"/>
                            <mxPoint x="600" y="760"/>
                            <mxPoint x="840" y="760"/>
                            <mxPoint x="840" y="900"/>
                        </Array>
                        <mxPoint as="offset"/>
                    </mxGeometry>
                </mxCell>
                <mxCell id="29" value="gestion du site" style="ellipse;whiteSpace=wrap;html=1;strokeColor=#FF0000;fillColor=#fff2cc;fontColor=#000000;" parent="1" vertex="1">
                    <mxGeometry x="170" y="1400" width="140" height="40" as="geometry"/>
                </mxCell>
                <mxCell id="31" value="&lt;span style=&quot;color: rgb(255, 255, 255);&quot;&gt;include&lt;/span&gt;" style="edgeStyle=none;html=1;fontSize=11;fontColor=#000000;dashed=1;strokeColor=#FF0000;entryX=0.5;entryY=1;entryDx=0;entryDy=0;exitX=0.5;exitY=0;exitDx=0;exitDy=0;" parent="1" source="29" target="22" edge="1">
                    <mxGeometry x="0.2667" y="20" relative="1" as="geometry">
                        <mxPoint x="240" y="1040" as="sourcePoint"/>
                        <mxPoint x="240" y="1060" as="targetPoint"/>
                        <Array as="points">
                            <mxPoint x="240" y="1040"/>
                            <mxPoint x="960" y="1040"/>
                        </Array>
                        <mxPoint as="offset"/>
                    </mxGeometry>
                </mxCell>
                <mxCell id="32" value="gestion des utilisateurs" style="ellipse;whiteSpace=wrap;html=1;strokeColor=#FF0000;fillColor=#fff2cc;fontColor=#000000;" parent="1" vertex="1">
                    <mxGeometry x="408.38" y="1160" width="138.33" height="40" as="geometry"/>
                </mxCell>
                <mxCell id="35" value="&lt;span style=&quot;color: rgb(255, 255, 255);&quot;&gt;extend&lt;/span&gt;" style="edgeStyle=none;html=1;fontSize=11;fontColor=#000000;dashed=1;strokeColor=#FF0000;exitX=0;exitY=0.5;exitDx=0;exitDy=0;entryX=1;entryY=0;entryDx=0;entryDy=0;" parent="1" source="32" target="29" edge="1">
                    <mxGeometry x="0.016" y="-32" relative="1" as="geometry">
                        <mxPoint x="289.4974746830585" y="1434.142135623731" as="sourcePoint"/>
                        <mxPoint x="240" y="1520" as="targetPoint"/>
                        <Array as="points"/>
                        <mxPoint as="offset"/>
                    </mxGeometry>
                </mxCell>
                <mxCell id="39" value="&lt;span style=&quot;color: rgb(255, 255, 255);&quot;&gt;extend&lt;/span&gt;" style="edgeStyle=none;html=1;fontSize=11;fontColor=#000000;dashed=1;strokeColor=#FF0000;entryX=1;entryY=0.5;entryDx=0;entryDy=0;exitX=0;exitY=0.5;exitDx=0;exitDy=0;" parent="1" source="14" target="40" edge="1">
                    <mxGeometry x="0.2759" y="-26" relative="1" as="geometry">
                        <mxPoint x="370.5" y="497.07" as="sourcePoint"/>
                        <mxPoint x="259.9974746830585" y="542.927864376269" as="targetPoint"/>
                        <Array as="points"/>
                        <mxPoint x="-1" as="offset"/>
                    </mxGeometry>
                </mxCell>
                <mxCell id="40" value="consulter ses réservations" style="ellipse;whiteSpace=wrap;html=1;strokeColor=#FF0000;fillColor=#fff2cc;fontColor=#000000;" parent="1" vertex="1">
                    <mxGeometry x="400" y="560" width="160" height="40" as="geometry"/>
                </mxCell>
                <mxCell id="41" value="&lt;span style=&quot;color: rgb(255, 255, 255);&quot;&gt;extend&lt;/span&gt;" style="edgeStyle=none;html=1;fontSize=11;fontColor=#000000;dashed=1;strokeColor=#FF0000;entryX=1;entryY=0.5;entryDx=0;entryDy=0;exitX=0;exitY=0.5;exitDx=0;exitDy=0;" parent="1" source="40" target="11" edge="1">
                    <mxGeometry x="0.1001" y="12" relative="1" as="geometry">
                        <mxPoint x="371.17" y="557.0699999999999" as="sourcePoint"/>
                        <mxPoint x="289.99825402658763" y="625.8096803485159" as="targetPoint"/>
                        <Array as="points"/>
                        <mxPoint as="offset"/>
                    </mxGeometry>
                </mxCell>
                <mxCell id="43" value="supprimer une réservation" style="ellipse;whiteSpace=wrap;html=1;strokeColor=#FF0000;fillColor=#fff2cc;fontColor=#000000;" parent="1" vertex="1">
                    <mxGeometry x="399.99999999999994" y="800" width="160" height="40" as="geometry"/>
                </mxCell>
                <mxCell id="44" value="modifier une réservation" style="ellipse;whiteSpace=wrap;html=1;strokeColor=#FF0000;fillColor=#fff2cc;fontColor=#000000;" parent="1" vertex="1">
                    <mxGeometry x="399.99999999999994" y="960" width="160" height="40" as="geometry"/>
                </mxCell>
                <mxCell id="45" value="&lt;span style=&quot;color: rgb(255, 255, 255);&quot;&gt;extend&lt;/span&gt;" style="edgeStyle=none;html=1;fontSize=11;fontColor=#000000;dashed=1;strokeColor=#FF0000;exitX=0;exitY=0.5;exitDx=0;exitDy=0;entryX=1;entryY=1;entryDx=0;entryDy=0;" parent="1" source="44" target="15" edge="1">
                    <mxGeometry x="0.3022" y="27" relative="1" as="geometry">
                        <mxPoint x="150.5" y="965.86" as="sourcePoint"/>
                        <mxPoint x="293.5031736687734" y="914.2363684979869" as="targetPoint"/>
                        <Array as="points"/>
                        <mxPoint as="offset"/>
                    </mxGeometry>
                </mxCell>
                <mxCell id="46" value="&lt;span style=&quot;color: rgb(255, 255, 255);&quot;&gt;extend&lt;/span&gt;" style="edgeStyle=none;html=1;fontSize=11;fontColor=#000000;dashed=1;strokeColor=#FF0000;exitX=0;exitY=0.5;exitDx=0;exitDy=0;entryX=1;entryY=0;entryDx=0;entryDy=0;" parent="1" source="43" target="15" edge="1">
                    <mxGeometry x="0.3022" y="-27" relative="1" as="geometry">
                        <mxPoint x="130.5" y="817.0699999999999" as="sourcePoint"/>
                        <mxPoint x="293.5031736687734" y="885.7636315020129" as="targetPoint"/>
                        <Array as="points"/>
                        <mxPoint as="offset"/>
                    </mxGeometry>
                </mxCell>
                <mxCell id="47" value="afficher les réservations" style="ellipse;whiteSpace=wrap;html=1;strokeColor=#FF0000;fillColor=#fff2cc;fontColor=#000000;" parent="1" vertex="1">
                    <mxGeometry x="406.71000000000004" y="1400" width="140" height="40" as="geometry"/>
                </mxCell>
                <mxCell id="50" value="supprimer une réservation" style="ellipse;whiteSpace=wrap;html=1;strokeColor=#FF0000;fillColor=#fff2cc;fontColor=#000000;" parent="1" vertex="1">
                    <mxGeometry x="640" y="1320" width="160" height="40" as="geometry"/>
                </mxCell>
                <mxCell id="51" value="modifier une réservation" style="ellipse;whiteSpace=wrap;html=1;strokeColor=#FF0000;fillColor=#fff2cc;fontColor=#000000;" parent="1" vertex="1">
                    <mxGeometry x="640" y="1480" width="160" height="40" as="geometry"/>
                </mxCell>
                <mxCell id="52" value="&lt;span style=&quot;color: rgb(255, 255, 255);&quot;&gt;extend&lt;/span&gt;" style="edgeStyle=none;html=1;fontSize=11;fontColor=#000000;dashed=1;strokeColor=#FF0000;exitX=0;exitY=0.5;exitDx=0;exitDy=0;entryX=1;entryY=1;entryDx=0;entryDy=0;" parent="1" source="51" target="47" edge="1">
                    <mxGeometry x="0.2581" y="25" relative="1" as="geometry">
                        <mxPoint x="390.5" y="1485.8600000000001" as="sourcePoint"/>
                        <mxPoint x="533.7440690535369" y="1434.1747586435094" as="targetPoint"/>
                        <Array as="points"/>
                        <mxPoint as="offset"/>
                    </mxGeometry>
                </mxCell>
                <mxCell id="53" value="&lt;span style=&quot;color: rgb(255, 255, 255);&quot;&gt;extend&lt;/span&gt;" style="edgeStyle=none;html=1;fontSize=11;fontColor=#000000;dashed=1;strokeColor=#FF0000;exitX=0;exitY=0.5;exitDx=0;exitDy=0;entryX=1;entryY=0;entryDx=0;entryDy=0;" parent="1" source="50" target="47" edge="1">
                    <mxGeometry x="0.2581" y="-25" relative="1" as="geometry">
                        <mxPoint x="370.5" y="1337.07" as="sourcePoint"/>
                        <mxPoint x="533.7440690535369" y="1405.8252413564903" as="targetPoint"/>
                        <Array as="points"/>
                        <mxPoint as="offset"/>
                    </mxGeometry>
                </mxCell>
                <mxCell id="54" value="&lt;span style=&quot;color: rgb(255, 255, 255);&quot;&gt;extend&lt;/span&gt;" style="edgeStyle=none;html=1;fontSize=11;fontColor=#000000;dashed=1;strokeColor=#FF0000;exitX=0;exitY=0.5;exitDx=0;exitDy=0;entryX=1;entryY=0.5;entryDx=0;entryDy=0;" parent="1" source="47" target="29" edge="1">
                    <mxGeometry x="-0.034" y="-30" relative="1" as="geometry">
                        <mxPoint x="365.0000000000003" y="1350" as="sourcePoint"/>
                        <mxPoint x="270.0000000000003" y="1350" as="targetPoint"/>
                        <Array as="points"/>
                        <mxPoint as="offset"/>
                    </mxGeometry>
                </mxCell>
                <mxCell id="55" value="supprimer un compte" style="ellipse;whiteSpace=wrap;html=1;strokeColor=#FF0000;fillColor=#fff2cc;fontColor=#000000;" parent="1" vertex="1">
                    <mxGeometry x="640.14" y="1080" width="156.57" height="40" as="geometry"/>
                </mxCell>
                <mxCell id="56" value="modifier le role du compte" style="ellipse;whiteSpace=wrap;html=1;strokeColor=#FF0000;fillColor=#fff2cc;fontColor=#000000;" parent="1" vertex="1">
                    <mxGeometry x="640.14" y="1240" width="156.57" height="40" as="geometry"/>
                </mxCell>
                <mxCell id="57" value="&lt;span style=&quot;color: rgb(255, 255, 255);&quot;&gt;extend&lt;/span&gt;" style="edgeStyle=none;html=1;fontSize=11;fontColor=#000000;dashed=1;strokeColor=#FF0000;exitX=0;exitY=0.5;exitDx=0;exitDy=0;entryX=1;entryY=1;entryDx=0;entryDy=0;" parent="1" source="56" target="32" edge="1">
                    <mxGeometry x="0.2067" y="23" relative="1" as="geometry">
                        <mxPoint x="390.63999999999993" y="1235.8600000000001" as="sourcePoint"/>
                        <mxPoint x="533.71" y="1184" as="targetPoint"/>
                        <Array as="points"/>
                        <mxPoint x="1" as="offset"/>
                    </mxGeometry>
                </mxCell>
                <mxCell id="58" value="&lt;span style=&quot;color: rgb(255, 255, 255);&quot;&gt;extend&lt;/span&gt;" style="edgeStyle=none;html=1;fontSize=11;fontColor=#000000;dashed=1;strokeColor=#FF0000;exitX=0;exitY=0.5;exitDx=0;exitDy=0;entryX=1;entryY=0;entryDx=0;entryDy=0;" parent="1" source="55" target="32" edge="1">
                    <mxGeometry x="0.2067" y="-23" relative="1" as="geometry">
                        <mxPoint x="370.63999999999993" y="1087.07" as="sourcePoint"/>
                        <mxPoint x="533.8056593790486" y="1155.8051285614472" as="targetPoint"/>
                        <Array as="points"/>
                        <mxPoint x="1" as="offset"/>
                    </mxGeometry>
                </mxCell>
                <mxCell id="60" value="créer un hotel" style="ellipse;whiteSpace=wrap;html=1;strokeColor=#FF0000;fillColor=#fff2cc;fontColor=#000000;" parent="1" vertex="1">
                    <mxGeometry x="405" y="1640" width="145" height="40" as="geometry"/>
                </mxCell>
                <mxCell id="61" value="supprimer un hotel" style="ellipse;whiteSpace=wrap;html=1;strokeColor=#FF0000;fillColor=#fff2cc;fontColor=#000000;" parent="1" vertex="1">
                    <mxGeometry x="640.14" y="1560" width="156.57" height="40" as="geometry"/>
                </mxCell>
                <mxCell id="62" value="consulter un hotel" style="ellipse;whiteSpace=wrap;html=1;strokeColor=#FF0000;fillColor=#fff2cc;fontColor=#000000;" parent="1" vertex="1">
                    <mxGeometry x="640" y="1720" width="156.57" height="40" as="geometry"/>
                </mxCell>
                <mxCell id="63" value="&lt;span style=&quot;color: rgb(255, 255, 255);&quot;&gt;extend&lt;/span&gt;" style="edgeStyle=none;html=1;fontSize=11;fontColor=#000000;dashed=1;strokeColor=#FF0000;exitX=0;exitY=0.5;exitDx=0;exitDy=0;entryX=1;entryY=1;entryDx=0;entryDy=0;" parent="1" source="62" target="60" edge="1">
                    <mxGeometry x="0.1835" y="22" relative="1" as="geometry">
                        <mxPoint x="387.25999999999993" y="1715.8600000000001" as="sourcePoint"/>
                        <mxPoint x="530.33" y="1664" as="targetPoint"/>
                        <Array as="points"/>
                        <mxPoint x="1" as="offset"/>
                    </mxGeometry>
                </mxCell>
                <mxCell id="64" value="&lt;span style=&quot;color: rgb(255, 255, 255);&quot;&gt;extend&lt;/span&gt;" style="edgeStyle=none;html=1;fontSize=11;fontColor=#000000;dashed=1;strokeColor=#FF0000;exitX=0;exitY=0.5;exitDx=0;exitDy=0;entryX=1;entryY=0;entryDx=0;entryDy=0;" parent="1" source="61" target="60" edge="1">
                    <mxGeometry x="0.1844" y="-22" relative="1" as="geometry">
                        <mxPoint x="367.25999999999993" y="1567.07" as="sourcePoint"/>
                        <mxPoint x="530.4256593790486" y="1635.8051285614472" as="targetPoint"/>
                        <Array as="points"/>
                        <mxPoint as="offset"/>
                    </mxGeometry>
                </mxCell>
                <mxCell id="65" value="&lt;span style=&quot;color: rgb(255, 255, 255);&quot;&gt;extend&lt;/span&gt;" style="edgeStyle=none;html=1;fontSize=11;fontColor=#000000;dashed=1;strokeColor=#FF0000;exitX=0;exitY=0.5;exitDx=0;exitDy=0;entryX=1;entryY=1;entryDx=0;entryDy=0;" parent="1" source="60" target="29" edge="1">
                    <mxGeometry x="0.0071" y="30" relative="1" as="geometry">
                        <mxPoint x="348.8799999999944" y="1510" as="sourcePoint"/>
                        <mxPoint x="229.9974746830585" y="1735.8578643762692" as="targetPoint"/>
                        <Array as="points"/>
                        <mxPoint as="offset"/>
                    </mxGeometry>
                </mxCell>
                <mxCell id="66" value="modifier un hotel" style="ellipse;whiteSpace=wrap;html=1;strokeColor=#FF0000;fillColor=#fff2cc;fontColor=#000000;" parent="1" vertex="1">
                    <mxGeometry x="640.14" y="1640" width="156.57" height="40" as="geometry"/>
                </mxCell>
                <mxCell id="67" value="&lt;span style=&quot;color: rgb(255, 255, 255);&quot;&gt;extend&lt;/span&gt;" style="edgeStyle=none;html=1;fontSize=11;fontColor=#000000;dashed=1;strokeColor=#FF0000;exitX=0;exitY=0.5;exitDx=0;exitDy=0;entryX=1;entryY=0.5;entryDx=0;entryDy=0;" parent="1" source="66" target="60" edge="1">
                    <mxGeometry x="-0.1707" y="-20" relative="1" as="geometry">
                        <mxPoint x="370.63999999999993" y="1647.07" as="sourcePoint"/>
                        <mxPoint x="526.1200037607035" y="1725.762498897725" as="targetPoint"/>
                        <Array as="points"/>
                        <mxPoint as="offset"/>
                    </mxGeometry>
                </mxCell>
                <mxCell id="68" value="créer une chambre" style="ellipse;whiteSpace=wrap;html=1;strokeColor=#FF0000;fillColor=#fff2cc;fontColor=#000000;" parent="1" vertex="1">
                    <mxGeometry x="400" y="1880" width="160" height="40" as="geometry"/>
                </mxCell>
                <mxCell id="69" value="supprimer une chambre" style="ellipse;whiteSpace=wrap;html=1;strokeColor=#FF0000;fillColor=#fff2cc;fontColor=#000000;" parent="1" vertex="1">
                    <mxGeometry x="640" y="1800" width="156.57" height="40" as="geometry"/>
                </mxCell>
                <mxCell id="70" value="consulter une chambre" style="ellipse;whiteSpace=wrap;html=1;strokeColor=#FF0000;fillColor=#fff2cc;fontColor=#000000;" parent="1" vertex="1">
                    <mxGeometry x="639.86" y="1960" width="156.57" height="40" as="geometry"/>
                </mxCell>
                <mxCell id="71" value="&lt;span style=&quot;color: rgb(255, 255, 255);&quot;&gt;extend&lt;/span&gt;" style="edgeStyle=none;html=1;fontSize=11;fontColor=#000000;dashed=1;strokeColor=#FF0000;exitX=0;exitY=0.5;exitDx=0;exitDy=0;entryX=1;entryY=1;entryDx=0;entryDy=0;" parent="1" source="70" target="68" edge="1">
                    <mxGeometry x="0.1835" y="22" relative="1" as="geometry">
                        <mxPoint x="387.11999999999995" y="1955.8600000000001" as="sourcePoint"/>
                        <mxPoint x="530.19" y="1904" as="targetPoint"/>
                        <Array as="points"/>
                        <mxPoint x="1" as="offset"/>
                    </mxGeometry>
                </mxCell>
                <mxCell id="72" value="&lt;span style=&quot;color: rgb(255, 255, 255);&quot;&gt;extend&lt;/span&gt;" style="edgeStyle=none;html=1;fontSize=11;fontColor=#000000;dashed=1;strokeColor=#FF0000;exitX=0;exitY=0.5;exitDx=0;exitDy=0;entryX=1;entryY=0;entryDx=0;entryDy=0;" parent="1" source="69" target="68" edge="1">
                    <mxGeometry x="0.1844" y="-22" relative="1" as="geometry">
                        <mxPoint x="367.11999999999995" y="1807.07" as="sourcePoint"/>
                        <mxPoint x="530.2856593790486" y="1875.8051285614472" as="targetPoint"/>
                        <Array as="points"/>
                        <mxPoint as="offset"/>
                    </mxGeometry>
                </mxCell>
                <mxCell id="73" value="modifier une chambre" style="ellipse;whiteSpace=wrap;html=1;strokeColor=#FF0000;fillColor=#fff2cc;fontColor=#000000;" parent="1" vertex="1">
                    <mxGeometry x="640" y="1880" width="156.57" height="40" as="geometry"/>
                </mxCell>
                <mxCell id="74" value="&lt;span style=&quot;color: rgb(255, 255, 255);&quot;&gt;extend&lt;/span&gt;" style="edgeStyle=none;html=1;fontSize=11;fontColor=#000000;dashed=1;strokeColor=#FF0000;exitX=0;exitY=0.5;exitDx=0;exitDy=0;entryX=1;entryY=0.5;entryDx=0;entryDy=0;" parent="1" source="73" target="68" edge="1">
                    <mxGeometry x="-0.1736" y="-20" relative="1" as="geometry">
                        <mxPoint x="370.49999999999994" y="1887.07" as="sourcePoint"/>
                        <mxPoint x="525.9800037607035" y="1965.762498897725" as="targetPoint"/>
                        <Array as="points"/>
                        <mxPoint as="offset"/>
                    </mxGeometry>
                </mxCell>
                <mxCell id="75" value="&lt;span style=&quot;color: rgb(255, 255, 255);&quot;&gt;extend&lt;/span&gt;" style="edgeStyle=none;html=1;fontSize=11;fontColor=#000000;dashed=1;strokeColor=#FF0000;exitX=0.5;exitY=0;exitDx=0;exitDy=0;entryX=0.5;entryY=1;entryDx=0;entryDy=0;" parent="1" source="68" target="60" edge="1">
                    <mxGeometry x="0.1835" y="22" relative="1" as="geometry">
                        <mxPoint x="517.2600000000037" y="1800" as="sourcePoint"/>
                        <mxPoint x="400.0000037607041" y="1734.237501102275" as="targetPoint"/>
                        <Array as="points"/>
                        <mxPoint x="1" as="offset"/>
                    </mxGeometry>
                </mxCell>
                <mxCell id="79" value="commenter un hotel" style="ellipse;whiteSpace=wrap;html=1;strokeColor=#FF0000;fillColor=#fff2cc;fontColor=#000000;" parent="1" vertex="1">
                    <mxGeometry x="170" y="280" width="140" height="40" as="geometry"/>
                </mxCell>
                <mxCell id="80" value="" style="edgeStyle=none;html=1;strokeColor=#FF0000;fontSize=11;fontColor=#FFFFFF;endArrow=classic;endFill=1;entryX=0;entryY=0.5;entryDx=0;entryDy=0;" parent="1" target="79" edge="1">
                    <mxGeometry relative="1" as="geometry">
                        <mxPoint x="80" y="560" as="sourcePoint"/>
                        <mxPoint x="180" y="590" as="targetPoint"/>
                    </mxGeometry>
                </mxCell>
                <mxCell id="81" value="supprimer son commentaire" style="ellipse;whiteSpace=wrap;html=1;strokeColor=#FF0000;fillColor=#fff2cc;fontColor=#000000;" parent="1" vertex="1">
                    <mxGeometry x="400" y="280" width="160" height="40" as="geometry"/>
                </mxCell>
                <mxCell id="84" value="&lt;span style=&quot;color: rgb(255, 255, 255);&quot;&gt;extend&lt;/span&gt;" style="edgeStyle=none;html=1;fontSize=11;fontColor=#000000;dashed=1;strokeColor=#FF0000;entryX=1;entryY=0.5;entryDx=0;entryDy=0;exitX=0;exitY=0.5;exitDx=0;exitDy=0;" parent="1" source="81" target="79" edge="1">
                    <mxGeometry x="-0.1377" y="32" relative="1" as="geometry">
                        <mxPoint x="310" y="370" as="sourcePoint"/>
                        <mxPoint x="289.4974746830583" y="314.14213562373095" as="targetPoint"/>
                        <Array as="points"/>
                        <mxPoint as="offset"/>
                    </mxGeometry>
                </mxCell>
                <mxCell id="86" value="liker un hotel" style="ellipse;whiteSpace=wrap;html=1;strokeColor=#FF0000;fillColor=#fff2cc;fontColor=#000000;" parent="1" vertex="1">
                    <mxGeometry x="170" y="440" width="140" height="40" as="geometry"/>
                </mxCell>
                <mxCell id="87" value="supprimer son like d'un hotel" style="ellipse;whiteSpace=wrap;html=1;strokeColor=#FF0000;fillColor=#fff2cc;fontColor=#000000;" parent="1" vertex="1">
                    <mxGeometry x="400" y="440" width="160" height="40" as="geometry"/>
                </mxCell>
                <mxCell id="88" value="&lt;span style=&quot;color: rgb(255, 255, 255);&quot;&gt;extend&lt;/span&gt;" style="edgeStyle=none;html=1;fontSize=11;fontColor=#000000;dashed=1;strokeColor=#FF0000;entryX=1;entryY=0.5;entryDx=0;entryDy=0;exitX=0;exitY=0.5;exitDx=0;exitDy=0;" parent="1" source="87" target="86" edge="1">
                    <mxGeometry x="0.1001" y="12" relative="1" as="geometry">
                        <mxPoint x="400.0000000000016" y="459.52" as="sourcePoint"/>
                        <mxPoint x="310.0000000000002" y="459.52" as="targetPoint"/>
                        <Array as="points"/>
                        <mxPoint as="offset"/>
                    </mxGeometry>
                </mxCell>
                <mxCell id="89" value="" style="edgeStyle=none;html=1;strokeColor=#FF0000;fontSize=11;fontColor=#FFFFFF;endArrow=classic;endFill=1;entryX=0;entryY=0.5;entryDx=0;entryDy=0;" parent="1" target="86" edge="1">
                    <mxGeometry relative="1" as="geometry">
                        <mxPoint x="80" y="570" as="sourcePoint"/>
                        <mxPoint x="180" y="590" as="targetPoint"/>
                    </mxGeometry>
                </mxCell>
                <mxCell id="90" value="supprimer un commentaire" style="ellipse;whiteSpace=wrap;html=1;strokeColor=#FF0000;fillColor=#fff2cc;fontColor=#000000;" parent="1" vertex="1">
                    <mxGeometry x="639.86" y="1160" width="156.57" height="40" as="geometry"/>
                </mxCell>
                <mxCell id="91" value="&lt;span style=&quot;color: rgb(255, 255, 255);&quot;&gt;extend&lt;/span&gt;" style="edgeStyle=none;html=1;fontSize=11;fontColor=#000000;dashed=1;strokeColor=#FF0000;exitX=0;exitY=0.5;exitDx=0;exitDy=0;entryX=1;entryY=0.5;entryDx=0;entryDy=0;" parent="1" source="90" target="32" edge="1">
                    <mxGeometry x="0.0705" y="-20" relative="1" as="geometry">
                        <mxPoint x="650.1400000000021" y="1110" as="sourcePoint"/>
                        <mxPoint x="560" y="1180" as="targetPoint"/>
                        <Array as="points"/>
                        <mxPoint as="offset"/>
                    </mxGeometry>
                </mxCell>
                <mxCell id="92" value="&lt;span style=&quot;color: rgb(255, 255, 255);&quot;&gt;include&lt;/span&gt;" style="edgeStyle=none;html=1;fontSize=11;fontColor=#000000;dashed=1;strokeColor=#FF0000;entryX=0.5;entryY=0;entryDx=0;entryDy=0;exitX=0.5;exitY=0;exitDx=0;exitDy=0;" parent="1" source="86" target="22" edge="1">
                    <mxGeometry x="-0.2903" y="20" relative="1" as="geometry">
                        <mxPoint x="240" y="400" as="sourcePoint"/>
                        <mxPoint x="1040" y="560.0000000000002" as="targetPoint"/>
                        <Array as="points">
                            <mxPoint x="240" y="400"/>
                            <mxPoint x="520" y="400"/>
                            <mxPoint x="720" y="400"/>
                            <mxPoint x="960" y="400"/>
                        </Array>
                        <mxPoint as="offset"/>
                    </mxGeometry>
                </mxCell>
                <mxCell id="93" value="&lt;span style=&quot;color: rgb(255, 255, 255);&quot;&gt;include&lt;/span&gt;" style="edgeStyle=none;html=1;fontSize=11;fontColor=#000000;dashed=1;strokeColor=#FF0000;entryX=1;entryY=0;entryDx=0;entryDy=0;exitX=0.5;exitY=0;exitDx=0;exitDy=0;" parent="1" source="79" target="22" edge="1">
                    <mxGeometry x="-0.3745" y="20" relative="1" as="geometry">
                        <mxPoint x="240" y="240" as="sourcePoint"/>
                        <mxPoint x="1040" y="360.0000000000002" as="targetPoint"/>
                        <Array as="points">
                            <mxPoint x="240" y="240"/>
                            <mxPoint x="520" y="240"/>
                            <mxPoint x="720" y="240"/>
                            <mxPoint x="1009" y="240"/>
                        </Array>
                        <mxPoint as="offset"/>
                    </mxGeometry>
                </mxCell>
                <mxCell id="96" value="" style="rounded=0;whiteSpace=wrap;html=1;fillColor=none;" vertex="1" parent="1">
                    <mxGeometry x="120" y="10" width="920" height="2030" as="geometry"/>
                </mxCell>
            </root>
        </mxGraphModel>
    </diagram>
</mxfile>